<?xml version="1.0" encoding="UTF-8"?>
<svg version="1.1" xmlns="http://www.w3.org/2000/svg" width="559" height="676">
<path d="M0 0 C32.86267671 -0.86556027 64.06466541 6.4060071 92.96972656 22.06201172 C93.59733887 22.40071289 94.22495117 22.73941406 94.87158203 23.08837891 C133.79414243 44.42941306 162.79972452 82.48193396 175.32910156 124.79589844 C188.22240476 170.40399304 182.42802415 218.69631182 159.31347656 260.10107422 C148.2809232 279.13963317 132.21813278 298.65309549 113.96972656 311.06201172 C117.61951242 318.36158343 123.67820834 322.63882304 131.23144531 325.36669922 C139.97939251 327.58800393 148.13890042 326.47247702 155.96972656 322.06201172 C159.09960872 319.87565968 162.02860363 317.49311333 164.96972656 315.06201172 C173.27716647 309.03504551 180.86304421 308.12748972 190.96972656 309.06201172 C196.3488908 310.58830832 200.0009356 313.26627247 202.96972656 318.06201172 C205.5664631 323.37913892 205.39195718 328.42449516 203.96972656 334.06201172 C197.28336555 348.81283868 181.67379569 359.14190708 167.21972656 364.93701172 C148.76452182 371.84563549 127.18354754 371.45396165 109.19628906 363.41357422 C103.0120774 360.50002774 97.46583782 357.10776029 91.96972656 353.06201172 C92.1746875 354.31755859 92.37964844 355.57310547 92.59082031 356.86669922 C92.86311085 358.5567784 93.13523745 360.246884 93.40722656 361.93701172 C93.54193359 362.75943359 93.67664063 363.58185547 93.81542969 364.42919922 C98.72998284 395.11518963 99.38336219 441.78264751 80.19628906 468.53466797 C75.32387314 473.37725277 69.7258913 474.84002345 62.96972656 475.06201172 C56.09569762 474.69613598 50.72211802 472.02102889 45.96972656 467.06201172 C40.40950509 459.72036006 39.80899703 452.0005431 40.96972656 443.06201172 C41.79095442 439.55776077 42.87859897 436.14473882 43.96801758 432.71630859 C50.92148342 410.58739002 52.37601858 383.28088777 44.96972656 361.06201172 C44.90503174 361.85559082 44.84033691 362.64916992 44.77368164 363.46679688 C42.22090583 393.84154216 36.68050656 422.04018321 21.96972656 449.06201172 C21.64359375 449.67270508 21.31746094 450.28339844 20.98144531 450.91259766 C3.53824038 483.45355665 3.53824038 483.45355665 -10.90527344 488.74951172 C-18.0888471 489.80591961 -23.73199975 488.58530343 -30.03027344 485.06201172 C-35.50017128 480.54190785 -38.41972768 474.65241128 -39.34667969 467.68310547 C-39.87614064 456.76937811 -34.87867875 449.57947035 -28.39746094 441.24951172 C-10.44932191 417.08172055 -2.56300835 386.81122219 -3.03027344 357.06201172 C-4.53176125 361.0116732 -6.01396718 364.95703053 -7.35449219 368.96435547 C-16.53934107 396.3199645 -31.16731648 419.25727663 -51.03027344 440.06201172 C-51.86558594 440.95017578 -52.70089844 441.83833984 -53.56152344 442.75341797 C-70.35001715 460.15288535 -70.35001715 460.15288535 -81.21777344 460.49951172 C-87.71667212 460.31537626 -93.45070536 457.74601575 -97.95996094 453.05419922 C-103.58075868 445.76598779 -103.79315446 439.1187787 -103.03027344 430.06201172 C-101.22669981 421.55219251 -94.4164849 416.38341746 -88.25878906 410.80493164 C-75.48931899 399.23005306 -66.46784093 386.04017336 -58.65527344 370.68701172 C-58.32116455 370.0330542 -57.98705566 369.37909668 -57.64282227 368.70532227 C-55.59280621 364.56254851 -54.17613751 360.54129854 -53.03027344 356.06201172 C-53.82691406 357.0578125 -53.82691406 357.0578125 -54.63964844 358.07373047 C-56.76985677 360.73649089 -58.9000651 363.3992513 -61.03027344 366.06201172 C-61.66578125 366.90505859 -62.30128906 367.74810547 -62.95605469 368.61669922 C-70.0361785 376.96351185 -79.99098873 382.15784544 -90.03027344 386.06201172 C-91.03832031 386.47580078 -92.04636719 386.88958984 -93.08496094 387.31591797 C-109.29051752 393.00173061 -129.44906999 392.27236105 -145.03027344 385.06201172 C-150.39038163 382.20918052 -153.98877884 378.83263027 -156.40917969 373.20654297 C-157.86438971 368.18194987 -157.61125617 363.80495992 -155.96777344 358.87451172 C-151.08468203 351.78615322 -145.40531996 348.71275587 -137.03027344 347.06201172 C-131.81059146 346.76015988 -126.61416256 347.03437036 -121.39550781 347.26708984 C-112.0472449 347.50295371 -103.12433981 345.53731822 -95.59277344 339.67138672 C-90.46518066 334.38996616 -87.86664925 328.07989864 -86.03027344 321.06201172 C-87.02285156 320.33498047 -88.01542969 319.60794922 -89.03808594 318.85888672 C-130.06521541 288.59705634 -158.1883243 249.35259794 -166.03027344 198.06201172 C-172.58199472 154.00885549 -161.00484058 108.17768295 -134.9765625 72.22241211 C-130.00754681 65.54517792 -124.60250912 59.24001388 -119.03027344 53.06201172 C-118.01707031 51.93859375 -118.01707031 51.93859375 -116.98339844 50.79248047 C-110.97363773 44.48736827 -103.96823939 39.29220229 -97.03027344 34.06201172 C-96.18464844 33.42134766 -95.33902344 32.78068359 -94.46777344 32.12060547 C-67.33622666 12.36773948 -33.48360144 1.0227074 0 0 Z M80.41503906 145.02685547 C76.27507624 150.85637068 76.39362666 156.04492598 76.96972656 163.06201172 C78.96013096 169.65522629 84.59643892 174.02028499 90.34472656 177.49951172 C97.02920514 178.93189998 103.13067808 178.8420233 109.14941406 175.39404297 C114.17879521 171.71374475 117.70940562 167.23758435 118.96972656 161.06201172 C119.61284952 154.52359493 118.43982242 149.68077374 114.96972656 144.06201172 C110.54274116 138.92058487 104.70035494 136.32207156 98.03222656 135.68701172 C90.04935967 136.08769616 85.47252192 138.92259127 80.41503906 145.02685547 Z M-71.34277344 162.24951172 C-76.09851413 167.22644965 -78.24197748 171.62368906 -78.53027344 178.56201172 C-78.25278832 184.83144118 -76.71996791 189.27935545 -72.33496094 193.81591797 C-67.4601823 197.91112674 -62.4140743 199.92721049 -56.03027344 200.06201172 C-49.62651875 199.14852124 -45.11623686 197.2295537 -41.03027344 192.06201172 C-36.6986355 186.04584792 -35.04846001 181.40868461 -36.03027344 174.06201172 C-37.94211224 168.27505569 -40.64570113 163.19827312 -45.95214844 159.96826172 C-55.36048572 155.86537779 -62.91176464 156.6818644 -71.34277344 162.24951172 Z " fill="#795DE6" transform="translate(261.0302734375,92.93798828125)"/>
</svg>
